<svg xmlns="http://www.w3.org/2000/svg" width="103" height="103" viewBox="0 0 103 103">
  <g id="ic_가입결제조회" transform="translate(-551 -434)">
    <rect id="사각형_1794" data-name="사각형 1794" width="103" height="103" transform="translate(551 434)" fill="none"/>
    <g id="그룹_135" data-name="그룹 135" transform="translate(156.865 1505.657)">
      <line id="선_111" data-name="선 111" x2="47.633" transform="translate(406.184 -1052.166)" fill="#fff" stroke="#fff" stroke-linecap="round" stroke-linejoin="round" stroke-width="3"/>
      <line id="선_112" data-name="선 112" x2="47.633" transform="translate(406.184 -1036.289)" fill="#fff" stroke="#fff" stroke-linecap="round" stroke-linejoin="round" stroke-width="3"/>
      <line id="선_113" data-name="선 113" x2="37.038" transform="translate(406.184 -1020.411)" fill="#fff" stroke="#fff" stroke-linecap="round" stroke-linejoin="round" stroke-width="3"/>
      <line id="선_114" data-name="선 114" x2="21.17" transform="translate(432.647 -986.01)" fill="#fff" stroke="#fff" stroke-linecap="round" stroke-linejoin="bevel" stroke-width="3"/>
      <path id="패스_1167" data-name="패스 1167" d="M461.865-1033.83v-29.826h-63.73v86.491h63.73v-18.41" fill="none" stroke="#fff" stroke-linejoin="round" stroke-width="3"/>
      <path id="패스_1168" data-name="패스 1168" d="M479.536-1015.423A18.426,18.426,0,0,1,461.111-997a18.426,18.426,0,0,1-18.423-18.426,18.424,18.424,0,0,1,18.423-18.423A18.424,18.424,0,0,1,479.536-1015.423Z" fill="none" stroke="#fff" stroke-linecap="round" stroke-linejoin="round" stroke-width="3"/>
      <path id="패스_1169" data-name="패스 1169" d="M492.286-986.128a2.232,2.232,0,0,1-.114,3.151l-1.848,1.718a2.23,2.23,0,0,1-3.152-.113l-14.925-16.046a2.229,2.229,0,0,1,.115-3.15l1.847-1.718a2.225,2.225,0,0,1,3.15.114Z" fill="none" stroke="#fff" stroke-linecap="round" stroke-linejoin="round" stroke-width="3"/>
    </g>
  </g>
</svg>
