<svg xmlns="http://www.w3.org/2000/svg" width="103" height="103" viewBox="0 0 103 103">
  <g id="ic_고객센터" transform="translate(-551 -434)">
    <rect id="사각형_1794" data-name="사각형 1794" width="103" height="103" transform="translate(551 434)" fill="none"/>
    <g id="그룹_144" data-name="그룹 144" transform="translate(-1210.028 1505.516)">
      <path id="패스_1186" data-name="패스 1186" d="M1780.673-1032.135v-6.313a25.068,25.068,0,0,1,25.068-25.068h12.7a25.067,25.067,0,0,1,25.067,25.068v6.313" fill="none" stroke="#fff" stroke-linecap="round" stroke-linejoin="round" stroke-width="3"/>
      <path id="사각형_1800" data-name="사각형 1800" d="M3.053,0H15.646a0,0,0,0,1,0,0V31.16a0,0,0,0,1,0,0H3.053A3.053,3.053,0,0,1,0,28.106V3.053A3.053,3.053,0,0,1,3.053,0Z" transform="translate(1765.028 -1032.135)" fill="none" stroke="#fff" stroke-linecap="round" stroke-linejoin="round" stroke-width="3"/>
      <path id="사각형_1801" data-name="사각형 1801" d="M3.053,0H15.646a0,0,0,0,1,0,0V31.16a0,0,0,0,1,0,0H3.053A3.053,3.053,0,0,1,0,28.106V3.053A3.053,3.053,0,0,1,3.053,0Z" transform="translate(1859.149 -1000.976) rotate(-180)" fill="none" stroke="#fff" stroke-linecap="round" stroke-linejoin="round" stroke-width="3"/>
      <path id="패스_1187" data-name="패스 1187" d="M1843.5-1000.976v5.557a11.47,11.47,0,0,1-11.469,11.47h-11.342" fill="none" stroke="#fff" stroke-linecap="round" stroke-linejoin="round" stroke-width="3"/>
      <circle id="타원_116" data-name="타원 116" cx="6.643" cy="6.643" r="6.643" transform="translate(1807.407 -990.592)" stroke-width="3" stroke="#fff" stroke-linecap="round" stroke-linejoin="round" fill="none"/>
    </g>
  </g>
</svg>
