<svg xmlns="http://www.w3.org/2000/svg" width="103" height="103" viewBox="0 0 103 103">
  <g id="ic_프로모션관리" transform="translate(-551 -434)">
    <rect id="사각형_1794" data-name="사각형 1794" width="103" height="103" transform="translate(551 434)" fill="none"/>
    <g id="그룹_136" data-name="그룹 136" transform="translate(-250.98 1505.48)">
      <rect id="사각형_1795" data-name="사각형 1795" width="80.425" height="44.483" transform="translate(813.423 -1021.826)" stroke-width="3" stroke="#fff" stroke-linecap="round" stroke-linejoin="round" fill="none"/>
      <rect id="사각형_1796" data-name="사각형 1796" width="93.309" height="18.085" transform="translate(806.981 -1039.911)" stroke-width="3" stroke="#fff" stroke-linecap="round" stroke-linejoin="round" fill="none"/>
      <path id="패스_1170" data-name="패스 1170" d="M845.994-1060.951c2.918,3.372,7.641,21.04,7.641,21.04s-15.291-5.457-18.209-8.829a9.611,9.611,0,0,1,0-12.211A6.785,6.785,0,0,1,845.994-1060.951Z" fill="none" stroke="#fff" stroke-linecap="round" stroke-linejoin="round" stroke-width="3"/>
      <path id="패스_1171" data-name="패스 1171" d="M861.276-1060.951c-2.918,3.372-7.641,21.04-7.641,21.04s15.291-5.457,18.209-8.829a9.608,9.608,0,0,0,0-12.211A6.785,6.785,0,0,0,861.276-1060.951Z" fill="none" stroke="#fff" stroke-linecap="round" stroke-linejoin="round" stroke-width="3"/>
      <line id="선_115" data-name="선 115" y2="62.569" transform="translate(853.635 -1039.911)" fill="none" stroke="#fff" stroke-linecap="round" stroke-linejoin="round" stroke-width="3"/>
    </g>
  </g>
</svg>
